<svg xmlns="http://www.w3.org/2000/svg" xmlns:xlink="http://www.w3.org/1999/xlink" width="500" zoomAndPan="magnify" viewBox="0 0 375 374.999991" height="500" preserveAspectRatio="xMidYMid meet" version="1.0"><defs><clipPath id="55cb15db0f"><path d="M 6 60 L 370.5625 60 L 370.5625 315 L 6 315 Z M 6 60 " clip-rule="nonzero"/></clipPath></defs><g clip-path="url(#55cb15db0f)"><path fill="#ffffff" d="M 24.59375 60.078125 C 23.992188 60.066406 23.390625 60.089844 22.792969 60.140625 C 22.191406 60.191406 21.597656 60.273438 21.003906 60.382812 C 20.414062 60.492188 19.828125 60.628906 19.25 60.796875 C 18.671875 60.964844 18.105469 61.160156 17.546875 61.386719 C 16.988281 61.609375 16.441406 61.859375 15.90625 62.140625 C 15.375 62.417969 14.855469 62.71875 14.351562 63.050781 C 13.847656 63.378906 13.363281 63.734375 12.894531 64.109375 C 12.425781 64.488281 11.980469 64.886719 11.550781 65.308594 C 11.121094 65.730469 10.714844 66.171875 10.332031 66.632812 C 9.945312 67.097656 9.585938 67.578125 9.246094 68.074219 C 8.910156 68.570312 8.597656 69.085938 8.3125 69.613281 C 8.027344 70.140625 7.769531 70.683594 7.535156 71.238281 C 7.304688 71.792969 7.097656 72.355469 6.921875 72.929688 C 6.746094 73.503906 6.601562 74.085938 6.480469 74.675781 C 6.363281 75.265625 6.273438 75.859375 6.214844 76.457031 C 6.15625 77.054688 6.125 77.652344 6.125 78.253906 C 6.125 78.855469 6.15625 79.453125 6.214844 80.050781 C 6.273438 80.648438 6.363281 81.242188 6.480469 81.832031 C 6.601562 82.421875 6.746094 83.003906 6.921875 83.578125 C 7.097656 84.152344 7.304688 84.714844 7.535156 85.269531 C 7.769531 85.824219 8.027344 86.367188 8.3125 86.894531 C 8.597656 87.421875 8.910156 87.9375 9.246094 88.433594 C 9.585938 88.933594 9.945312 89.410156 10.332031 89.875 C 10.714844 90.335938 11.121094 90.777344 11.550781 91.199219 C 11.980469 91.621094 12.425781 92.019531 12.894531 92.398438 C 13.363281 92.777344 13.847656 93.128906 14.351562 93.457031 C 14.855469 93.789062 15.375 94.089844 15.90625 94.371094 C 16.441406 94.648438 16.988281 94.898438 17.546875 95.121094 C 18.105469 95.347656 18.671875 95.542969 19.25 95.710938 C 19.828125 95.878906 20.414062 96.015625 21.003906 96.125 C 21.597656 96.238281 22.191406 96.316406 22.792969 96.367188 C 23.390625 96.417969 23.992188 96.441406 24.59375 96.429688 L 352.355469 96.429688 C 352.957031 96.441406 353.558594 96.417969 354.15625 96.367188 C 354.757812 96.316406 355.351562 96.238281 355.941406 96.125 C 356.535156 96.015625 357.121094 95.878906 357.699219 95.710938 C 358.277344 95.542969 358.84375 95.347656 359.402344 95.121094 C 359.960938 94.898438 360.507812 94.648438 361.039062 94.371094 C 361.574219 94.089844 362.089844 93.789062 362.59375 93.457031 C 363.097656 93.128906 363.585938 92.777344 364.050781 92.398438 C 364.519531 92.019531 364.96875 91.621094 365.398438 91.199219 C 365.824219 90.777344 366.234375 90.335938 366.617188 89.875 C 367 89.410156 367.363281 88.933594 367.699219 88.433594 C 368.035156 87.9375 368.347656 87.421875 368.632812 86.894531 C 368.921875 86.367188 369.179688 85.824219 369.410156 85.269531 C 369.644531 84.714844 369.847656 84.152344 370.023438 83.578125 C 370.199219 83.003906 370.347656 82.421875 370.464844 81.832031 C 370.585938 81.242188 370.671875 80.648438 370.734375 80.050781 C 370.792969 79.453125 370.824219 78.855469 370.824219 78.253906 C 370.824219 77.652344 370.792969 77.054688 370.734375 76.457031 C 370.671875 75.859375 370.585938 75.265625 370.464844 74.675781 C 370.347656 74.085938 370.199219 73.503906 370.023438 72.929688 C 369.847656 72.355469 369.644531 71.792969 369.410156 71.238281 C 369.179688 70.683594 368.921875 70.140625 368.632812 69.613281 C 368.347656 69.085938 368.035156 68.570312 367.699219 68.074219 C 367.363281 67.578125 367 67.097656 366.617188 66.632812 C 366.234375 66.171875 365.824219 65.730469 365.398438 65.308594 C 364.96875 64.886719 364.519531 64.488281 364.050781 64.109375 C 363.585938 63.734375 363.097656 63.378906 362.59375 63.050781 C 362.089844 62.71875 361.574219 62.417969 361.039062 62.140625 C 360.507812 61.859375 359.960938 61.609375 359.402344 61.386719 C 358.84375 61.160156 358.277344 60.964844 357.699219 60.796875 C 357.121094 60.628906 356.535156 60.492188 355.941406 60.382812 C 355.351562 60.273438 354.757812 60.191406 354.15625 60.140625 C 353.558594 60.089844 352.957031 60.066406 352.355469 60.078125 Z M 24.59375 169.140625 C 23.992188 169.132812 23.390625 169.15625 22.792969 169.207031 C 22.191406 169.257812 21.597656 169.335938 21.003906 169.445312 C 20.414062 169.558594 19.828125 169.695312 19.25 169.863281 C 18.671875 170.03125 18.105469 170.226562 17.546875 170.449219 C 16.988281 170.675781 16.441406 170.925781 15.90625 171.203125 C 15.375 171.480469 14.855469 171.785156 14.351562 172.113281 C 13.847656 172.445312 13.363281 172.796875 12.894531 173.175781 C 12.425781 173.554688 11.980469 173.953125 11.550781 174.375 C 11.121094 174.796875 10.714844 175.238281 10.332031 175.699219 C 9.945312 176.160156 9.585938 176.640625 9.25 177.140625 C 8.910156 177.636719 8.601562 178.152344 8.3125 178.679688 C 8.027344 179.207031 7.769531 179.75 7.535156 180.304688 C 7.304688 180.855469 7.101562 181.421875 6.921875 181.996094 C 6.746094 182.570312 6.601562 183.152344 6.480469 183.742188 C 6.363281 184.332031 6.273438 184.921875 6.214844 185.523438 C 6.15625 186.121094 6.125 186.71875 6.125 187.320312 C 6.125 187.921875 6.15625 188.519531 6.214844 189.117188 C 6.273438 189.714844 6.363281 190.308594 6.480469 190.898438 C 6.601562 191.488281 6.746094 192.066406 6.921875 192.640625 C 7.101562 193.21875 7.304688 193.78125 7.535156 194.335938 C 7.769531 194.890625 8.027344 195.429688 8.3125 195.960938 C 8.601562 196.488281 8.910156 197 9.25 197.5 C 9.585938 197.996094 9.945312 198.476562 10.332031 198.9375 C 10.714844 199.402344 11.121094 199.84375 11.550781 200.265625 C 11.980469 200.6875 12.425781 201.085938 12.894531 201.464844 C 13.363281 201.839844 13.847656 202.195312 14.351562 202.523438 C 14.855469 202.851562 15.375 203.15625 15.90625 203.433594 C 16.441406 203.710938 16.988281 203.964844 17.546875 204.1875 C 18.105469 204.410156 18.671875 204.609375 19.25 204.773438 C 19.828125 204.941406 20.414062 205.082031 21.003906 205.191406 C 21.597656 205.300781 22.191406 205.382812 22.792969 205.433594 C 23.390625 205.484375 23.992188 205.503906 24.59375 205.496094 L 352.355469 205.496094 C 352.957031 205.503906 353.558594 205.484375 354.15625 205.433594 C 354.757812 205.382812 355.351562 205.300781 355.941406 205.191406 C 356.535156 205.082031 357.121094 204.941406 357.699219 204.773438 C 358.273438 204.609375 358.84375 204.410156 359.402344 204.1875 C 359.960938 203.964844 360.507812 203.710938 361.039062 203.433594 C 361.574219 203.15625 362.089844 202.851562 362.59375 202.523438 C 363.097656 202.195312 363.582031 201.839844 364.050781 201.464844 C 364.519531 201.085938 364.96875 200.6875 365.398438 200.265625 C 365.824219 199.84375 366.230469 199.402344 366.617188 198.9375 C 367 198.476562 367.363281 197.996094 367.699219 197.5 C 368.035156 197 368.347656 196.488281 368.632812 195.960938 C 368.921875 195.429688 369.179688 194.890625 369.410156 194.335938 C 369.644531 193.78125 369.847656 193.21875 370.023438 192.640625 C 370.199219 192.066406 370.347656 191.488281 370.464844 190.898438 C 370.585938 190.308594 370.671875 189.714844 370.734375 189.117188 C 370.792969 188.519531 370.820312 187.921875 370.820312 187.320312 C 370.820312 186.71875 370.792969 186.121094 370.734375 185.523438 C 370.671875 184.921875 370.585938 184.332031 370.464844 183.742188 C 370.347656 183.152344 370.199219 182.570312 370.023438 181.996094 C 369.847656 181.421875 369.644531 180.855469 369.410156 180.304688 C 369.179688 179.75 368.921875 179.207031 368.632812 178.679688 C 368.347656 178.152344 368.035156 177.636719 367.699219 177.140625 C 367.363281 176.640625 367 176.160156 366.617188 175.699219 C 366.230469 175.238281 365.824219 174.796875 365.398438 174.375 C 364.96875 173.953125 364.519531 173.554688 364.050781 173.175781 C 363.582031 172.796875 363.097656 172.445312 362.59375 172.117188 C 362.089844 171.785156 361.574219 171.480469 361.039062 171.203125 C 360.507812 170.925781 359.960938 170.675781 359.402344 170.449219 C 358.84375 170.226562 358.273438 170.03125 357.699219 169.863281 C 357.121094 169.695312 356.535156 169.558594 355.941406 169.445312 C 355.351562 169.335938 354.757812 169.257812 354.15625 169.207031 C 353.558594 169.15625 352.957031 169.132812 352.355469 169.140625 Z M 24.59375 278.207031 C 23.992188 278.199219 23.390625 278.21875 22.792969 278.269531 C 22.191406 278.320312 21.597656 278.402344 21.003906 278.511719 C 20.414062 278.621094 19.828125 278.761719 19.25 278.929688 C 18.671875 279.097656 18.105469 279.292969 17.546875 279.515625 C 16.988281 279.742188 16.441406 279.992188 15.90625 280.269531 C 15.375 280.546875 14.855469 280.851562 14.351562 281.179688 C 13.847656 281.507812 13.363281 281.863281 12.894531 282.242188 C 12.425781 282.617188 11.980469 283.015625 11.550781 283.4375 C 11.121094 283.859375 10.714844 284.304688 10.332031 284.765625 C 9.945312 285.226562 9.585938 285.707031 9.246094 286.203125 C 8.910156 286.703125 8.597656 287.214844 8.3125 287.746094 C 8.027344 288.273438 7.769531 288.8125 7.535156 289.367188 C 7.304688 289.921875 7.097656 290.488281 6.921875 291.0625 C 6.746094 291.636719 6.597656 292.21875 6.480469 292.804688 C 6.363281 293.394531 6.273438 293.988281 6.214844 294.585938 C 6.15625 295.183594 6.125 295.785156 6.125 296.382812 C 6.125 296.984375 6.15625 297.585938 6.214844 298.183594 C 6.273438 298.78125 6.363281 299.375 6.480469 299.960938 C 6.597656 300.550781 6.746094 301.132812 6.921875 301.707031 C 7.097656 302.28125 7.304688 302.847656 7.535156 303.402344 C 7.769531 303.957031 8.027344 304.496094 8.3125 305.023438 C 8.597656 305.554688 8.910156 306.066406 9.246094 306.566406 C 9.585938 307.0625 9.945312 307.542969 10.332031 308.003906 C 10.714844 308.464844 11.121094 308.910156 11.550781 309.328125 C 11.980469 309.75 12.425781 310.152344 12.894531 310.527344 C 13.363281 310.90625 13.847656 311.257812 14.351562 311.589844 C 14.855469 311.917969 15.375 312.222656 15.90625 312.5 C 16.441406 312.777344 16.988281 313.027344 17.546875 313.253906 C 18.105469 313.476562 18.671875 313.671875 19.25 313.839844 C 19.828125 314.007812 20.414062 314.148438 21.003906 314.257812 C 21.597656 314.367188 22.191406 314.449219 22.792969 314.5 C 23.390625 314.550781 23.992188 314.570312 24.59375 314.5625 L 352.355469 314.5625 C 352.957031 314.570312 353.558594 314.550781 354.15625 314.5 C 354.757812 314.449219 355.351562 314.367188 355.945312 314.257812 C 356.535156 314.148438 357.121094 314.007812 357.699219 313.839844 C 358.277344 313.671875 358.84375 313.476562 359.402344 313.253906 C 359.960938 313.027344 360.507812 312.777344 361.039062 312.5 C 361.574219 312.222656 362.09375 311.917969 362.59375 311.589844 C 363.097656 311.257812 363.585938 310.90625 364.050781 310.527344 C 364.519531 310.152344 364.96875 309.75 365.398438 309.328125 C 365.824219 308.910156 366.234375 308.464844 366.617188 308.003906 C 367.003906 307.542969 367.363281 307.0625 367.699219 306.566406 C 368.035156 306.066406 368.347656 305.554688 368.632812 305.023438 C 368.921875 304.496094 369.179688 303.957031 369.410156 303.402344 C 369.644531 302.847656 369.847656 302.28125 370.023438 301.707031 C 370.199219 301.132812 370.347656 300.550781 370.464844 299.960938 C 370.585938 299.375 370.675781 298.78125 370.734375 298.183594 C 370.792969 297.585938 370.824219 296.984375 370.824219 296.382812 C 370.824219 295.785156 370.792969 295.183594 370.734375 294.585938 C 370.675781 293.988281 370.585938 293.394531 370.464844 292.804688 C 370.347656 292.21875 370.199219 291.636719 370.023438 291.0625 C 369.847656 290.488281 369.644531 289.921875 369.410156 289.367188 C 369.179688 288.8125 368.921875 288.273438 368.632812 287.746094 C 368.347656 287.214844 368.035156 286.703125 367.699219 286.203125 C 367.363281 285.707031 367.003906 285.226562 366.617188 284.765625 C 366.234375 284.304688 365.824219 283.859375 365.398438 283.4375 C 364.96875 283.015625 364.519531 282.617188 364.050781 282.242188 C 363.585938 281.863281 363.097656 281.507812 362.59375 281.179688 C 362.09375 280.851562 361.574219 280.546875 361.039062 280.269531 C 360.507812 279.992188 359.960938 279.742188 359.402344 279.515625 C 358.84375 279.292969 358.277344 279.097656 357.699219 278.929688 C 357.121094 278.761719 356.535156 278.621094 355.945312 278.511719 C 355.351562 278.402344 354.757812 278.320312 354.15625 278.269531 C 353.558594 278.21875 352.957031 278.199219 352.355469 278.207031 Z M 24.59375 278.207031 " fill-opacity="1" fill-rule="nonzero"/></g></svg>